<?xml version="1.0" encoding="utf-8"?>
<!-- Generator: Adobe Illustrator 15.0.1, SVG Export Plug-In . SVG Version: 6.00 Build 0)  -->
<!DOCTYPE svg PUBLIC "-//W3C//DTD SVG 1.1//EN" "http://www.w3.org/Graphics/SVG/1.1/DTD/svg11.dtd">
<svg version="1.1" id="Calque_1" xmlns="http://www.w3.org/2000/svg" xmlns:xlink="http://www.w3.org/1999/xlink" x="0px" y="0px"
	 width="36px" height="24px" viewBox="0.5 0.5 36 24" enable-background="new 0.5 0.5 36 24" xml:space="preserve">
<g>
	<g>
		<path fill="#F6F6F6" d="M1.5,14.5c0,0-1-1.637-1-2v-11c0-0.104,0.769-1,1-1h3v12.77c0,0.146,2,1.23,2,1.23H1.5z"/>
		<path fill="#F6F6F6" d="M12.5,24.5H8.95c-0.229,0-0.416-0.189-0.416-0.424V14.5H12.5V24.5z"/>
		<rect x="8.534" y="0.5" fill="#F6F6F6" width="3.966" height="11"/>
		<polygon fill="#F6F6F6" points="28.5,24.5 24.5,24.5 24.5,5.242 28.5,8.211 		"/>
		<polygon fill="#F6F6F6" points="28.5,3.216 24.5,0.5 28.5,0.5 		"/>
		<path fill="#F6F6F6" d="M36.5,23.5c0,1-0.766,1-1,1h-2.889v-24H35.5c0.234,0,1,0.764,1,1V23.5z"/>
	</g>
	<rect x="16.5" y="0.5" fill="#F6F6F6" width="4" height="24"/>
</g>
</svg>
